<?xml version="1.0" encoding="utf-8"?>
<!-- Generator: Adobe Illustrator 26.0.1, SVG Export Plug-In . SVG Version: 6.00 Build 0)  -->
<svg version="1.1" id="Layer_1" xmlns="http://www.w3.org/2000/svg" xmlns:xlink="http://www.w3.org/1999/xlink" x="0px" y="0px"
	 viewBox="0 0 32 32" style="enable-background:new 0 0 32 32;" xml:space="preserve">
<style type="text/css">
	.st0{fill:#EE7725;}
</style>
<path class="st0" d="M10,14.8c1.9,0,2.1-1,2.1-1.9c0-0.7-0.1-1.4-0.1-2.1s-0.1-1.5-0.1-2.1c0-2.6,1.6-3.7,4.2-3.7h1v2.3h-0.5
	c-1.2,0-1.6,0.7-1.6,2c0,0.5,0.1,1,0.1,1.6c0,0.5,0.1,1.1,0.1,1.9c0,2.1-0.9,2.8-2.3,3.2c1.5,0.4,2.3,1.1,2.3,3.2
	c0,0.7-0.1,1.4-0.1,1.9s-0.1,1.1-0.1,1.5c0,1.2,0.4,2,1.6,2H17v2.3h-1c-2.5,0-4.1-1-4.1-3.7c0-0.7,0-1.4,0.1-2.1
	c0.1-0.7,0.1-1.5,0.1-2.1c0-0.7-0.2-1.9-2.1-1.9C10.1,17.2,10,14.8,10,14.8z M31,16.9c-1.9,0-2.1,1.1-2.1,1.9c0,0.7,0.1,1.4,0.1,2.1
	c0.1,0.7,0.1,1.5,0.1,2.1c0,2.7-1.7,3.7-4.2,3.7h-1v-2.1h0.5c1.2,0,1.6-0.7,1.6-2c0-0.5,0-1-0.1-1.5c0-0.6-0.1-1.2-0.1-1.9
	c0-2.1,0.9-2.8,2.3-3.2c-1.5-0.4-2.3-1.1-2.3-3.2c0-0.7,0.1-1.4,0.1-1.9c0.1-0.6,0.1-1.1,0.1-1.6c0-1.2-0.5-1.9-1.6-2H24V5.1h1
	c2.6,0,4.2,1.1,4.2,3.7c0,0.7-0.1,1.4-0.1,2.1c-0.1,0.7-0.1,1.5-0.1,2.1c0,0.9,0.2,1.9,2.1,1.9C31,14.8,31,16.9,31,16.9z"/>
</svg>
